<svg width="24" height="25" viewBox="0 0 24 25" fill="none" xmlns="http://www.w3.org/2000/svg">
<path d="M3.6 9.89062H7.2V21.2906H3.6V9.89062ZM5.4 4.19063C6.6 4.19063 7.5 5.09062 7.5 6.29062C7.35 7.34062 6.45 8.39062 5.4 8.39062C4.2 8.39062 3.3 7.34062 3.3 6.29062C3.3 5.09062 4.2 4.19063 5.4 4.19063ZM9.3 9.89062H12.75V11.3906C13.5 10.1906 14.85 9.59063 16.2 9.59063C19.8 9.59063 20.4 11.9906 20.4 14.9906V21.2906H16.8V15.7406C16.8 14.3906 16.8 12.7406 15 12.7406C13.2 12.7406 12.9 14.2406 12.9 15.7406V21.4406H9.3V9.89062ZM19.5 0.890625H4.5C1.5 0.890625 0 2.39062 0 5.39062V20.3906C0 23.3906 1.5 24.8906 4.5 24.8906H19.5C22.5 24.8906 24 23.3906 24 20.3906V5.39062C24 2.39062 22.5 0.890625 19.5 0.890625Z" fill="#1178B3"/>
</svg>
