<svg width="24" height="25" viewBox="0 0 24 25" fill="none" xmlns="http://www.w3.org/2000/svg">
<path d="M22.6755 0.890625H1.3245C0.5925 0.890625 0 1.48313 0 2.21513V23.5661C0 24.2981 0.5925 24.8906 1.3245 24.8906H12.819V15.5966H9.69V11.9756H12.819V9.30112C12.819 6.20212 14.712 4.51613 17.478 4.51613C18.8025 4.51613 19.941 4.61212 20.2725 4.65712V7.89713H18.3525C16.8525 7.89713 16.56 8.61712 16.56 9.66712V11.9771H20.145L19.68 15.6071H16.56V24.8906H22.6755C23.4075 24.8906 24 24.2981 24 23.5661V2.21513C24 1.48313 23.4075 0.890625 22.6755 0.890625Z" fill="#435695"/>
</svg>
